<svg width="16" height="33" viewBox="0 0 16 33" fill="none" xmlns="http://www.w3.org/2000/svg">
<g id="Group">
<path id="Vector" d="M3.39425 6.90593C3.39425 6.71207 3.42123 6.29338 3.4752 5.65256C3.53321 5.0104 3.77604 4.33861 4.21179 3.63317C4.64349 2.93042 5.34365 2.29902 6.31768 1.74033C7.28766 1.18432 8.68934 0.904297 10.5187 0.904297H15.6721V6.50879H11.8988C11.5251 6.50879 11.177 6.6488 10.8627 6.92478C10.5511 7.20076 10.3905 7.46329 10.3905 7.70696V11.1938H15.6708C15.6154 11.8763 15.5547 12.54 15.4846 13.1809L15.2755 14.8745C15.1918 15.4466 15.1068 15.977 15.0232 16.4657H10.3527V32.0043H3.39425V16.4644H0V11.1938H3.39425V6.90593Z" fill="white"/>
</g>
</svg>
