<svg id="Warstwa_1" xmlns="http://www.w3.org/2000/svg" viewBox="0 0 332.81 188.25">
  <defs>
    <style>
      .cls-1 {
        fill: #dadada;
      }

      .paw {
        fill: #E4FF00;
      }
    </style>
  </defs>
  <path class="cls-1"
    d="m5.23,72.38v-14.09H0v-6.62h5.23v-8.25h8.64v8.25h7.88v6.62h-7.88v13.85c0,2.77,1.45,4.34,4.35,4.34,1.51,0,2.77-.24,3.59-.54v6.69c-1.32.48-3.66.78-6.05.78-6.94,0-10.53-3.73-10.53-11.02Z" />
  <path class="cls-1"
    d="m40.54,50.94c10.4,0,15.83,7.11,15.83,16.2v1.99h-23.83c.31,4.7,3.28,8.25,8.32,8.25,4.04,0,6.18-1.81,7.25-4.16h7.82c-1.51,6.2-7.38,10.48-15.01,10.48-10.53,0-16.65-7.17-16.65-16.38s6.68-16.38,16.27-16.38Zm7.57,12.47c-.57-3.91-3.28-6.62-7.57-6.62s-7,2.83-7.76,6.62h15.32Z" />
  <path class="cls-1"
    d="m61.1,51.66h8.26v7.05c.95-4.4,3.91-7.41,9.08-7.41.95,0,1.89.06,2.52.24v7.83c-.63-.06-1.26-.06-2.08-.06-5.8,0-9.14,3.43-9.14,9.76v13.91h-8.64v-31.32Z" />
  <path class="cls-1"
    d="m95.78,63.95l7.94-.6v-1.14c0-3.13-1.83-5.12-5.61-5.12-3.47,0-5.61,1.87-5.99,4.28h-8.2c1.01-6.2,6.43-10.42,14.19-10.42,9.27,0,14.19,4.7,14.19,11.8v20.24h-8.32v-4.28c-1.26,2.71-4.85,5-9.77,5-6.94,0-11.41-3.85-11.41-9.82s4.48-9.33,12.99-9.94Zm.76,14.15c4.41,0,7.19-2.65,7.19-7.17v-2.11l-6.24.48c-3.91.3-6.37,1.39-6.37,4.34,0,2.65,1.95,4.46,5.42,4.46Z" />
  <path class="cls-1"
    d="m126.93,51.66v4.94c1.64-3.25,5.17-5.66,10.21-5.66,8.76,0,15.01,7.23,15.01,16.38s-6.18,16.38-14.94,16.38c-4.98,0-8.45-2.41-10.02-5.66v16.02h-8.64v-42.4h8.38Zm8.45,25.17c5.04,0,8.2-4.58,8.2-9.52s-3.15-9.52-8.2-9.52-8.2,4.16-8.2,9.52,3.28,9.52,8.2,9.52Z" />
  <path class="cls-1"
    d="m171.06,50.94c10.4,0,15.83,7.11,15.83,16.2v1.99h-23.83c.32,4.7,3.28,8.25,8.32,8.25,4.04,0,6.18-1.81,7.25-4.16h7.82c-1.51,6.2-7.38,10.48-15,10.48-10.53,0-16.65-7.17-16.65-16.38s6.68-16.38,16.27-16.38Zm7.57,12.47c-.57-3.91-3.28-6.62-7.57-6.62s-7,2.83-7.75,6.62h15.32Z" />
  <path class="cls-1"
    d="m191.3,51.66h8.64v18.13c0,3.97,1.64,6.87,5.74,6.87s6.3-2.59,6.3-6.87v-18.13h8.58v31.32h-8.2v-4.76c-1.45,3.25-4.54,5.48-9.39,5.48-7.75,0-11.66-5.18-11.66-12.89v-19.15Z" />
  <path class="cls-1"
    d="m229.39,72.38v-14.09h-5.23v-6.62h5.23v-8.25h8.64v8.25h7.88v6.62h-7.88v13.85c0,2.77,1.45,4.34,4.35,4.34,1.51,0,2.77-.24,3.59-.54v6.69c-1.32.48-3.66.78-6.05.78-6.94,0-10.53-3.73-10.53-11.02Z" />
  <path class="cls-1"
    d="m262.49,63.95l7.94-.6v-1.14c0-3.13-1.83-5.12-5.61-5.12-3.47,0-5.61,1.87-5.99,4.28h-8.2c1.01-6.2,6.43-10.42,14.19-10.42,9.27,0,14.19,4.7,14.19,11.8v20.24h-8.32v-4.28c-1.26,2.71-4.86,5-9.77,5-6.94,0-11.41-3.85-11.41-9.82s4.48-9.33,12.99-9.94Zm.76,14.15c4.41,0,7.19-2.65,7.19-7.17v-2.11l-6.24.48c-3.91.3-6.37,1.39-6.37,4.34,0,2.65,1.95,4.46,5.42,4.46Z" />
  <path class="cls-1"
    d="m3.35,118.76h6.99v4.05c1.27-2.83,3.81-4.65,7.95-4.65,6.52,0,9.85,4.35,9.85,10.83v16.09h-7.26v-15.18c0-3.34-1.48-5.77-4.93-5.77s-5.35,2.18-5.35,5.77v15.18H3.35v-26.31Z" />
  <path class="cls-1"
    d="m44.04,129.08l6.68-.51v-.96c0-2.63-1.54-4.3-4.72-4.3-2.91,0-4.72,1.57-5.03,3.59h-6.89c.85-5.21,5.4-8.75,11.92-8.75,7.79,0,11.92,3.95,11.92,9.92v17h-6.99v-3.59c-1.06,2.28-4.08,4.2-8.21,4.2-5.83,0-9.59-3.24-9.59-8.25s3.76-7.84,10.91-8.35Zm.64,11.89c3.71,0,6.04-2.23,6.04-6.02v-1.77l-5.25.4c-3.28.25-5.35,1.16-5.35,3.64,0,2.23,1.64,3.74,4.56,3.74Z" />
  <path class="cls-1"
    d="m72.6,131.71l16.32-22.06h8.16v21.91h4.98v5.67h-4.98v7.84h-6.89v-7.84h-17.59v-5.52Zm17.59-.15v-14.62l-10.44,14.62h10.44Z" />
  <path class="cls-1"
    d="m114.51,126.85l3.44-2.02v-16.7h7.21v12.55l4.19-2.53v6.73l-4.19,2.53v17.66h-7.21v-13.51l-3.44,2.07v-6.78Z" />
  <path class="cls-1"
    d="m142.96,129.08l6.68-.51v-.96c0-2.63-1.54-4.3-4.71-4.3-2.91,0-4.72,1.57-5.03,3.59h-6.89c.85-5.21,5.4-8.75,11.92-8.75,7.79,0,11.92,3.95,11.92,9.92v17h-6.99v-3.59c-1.06,2.28-4.08,4.2-8.21,4.2-5.83,0-9.59-3.24-9.59-8.25s3.76-7.84,10.91-8.35Zm.64,11.89c3.71,0,6.04-2.23,6.04-6.02v-1.77l-5.25.4c-3.28.25-5.35,1.16-5.35,3.64,0,2.23,1.64,3.74,4.56,3.74Z" />
  <path class="cls-1"
    d="m169.56,118.76v4.15c1.38-2.73,4.34-4.76,8.58-4.76,7.36,0,12.61,6.07,12.61,13.76s-5.19,13.76-12.56,13.76c-4.19,0-7.1-2.02-8.42-4.76v13.46h-7.26v-35.62h7.05Zm7.1,21.15c4.24,0,6.89-3.85,6.89-7.99s-2.65-8-6.89-8-6.89,3.49-6.89,8,2.76,7.99,6.89,7.99Z" />
  <path class="cls-1"
    d="m205.22,129.08l6.68-.51v-.96c0-2.63-1.54-4.3-4.71-4.3-2.91,0-4.72,1.57-5.03,3.59h-6.89c.85-5.21,5.4-8.75,11.92-8.75,7.79,0,11.92,3.95,11.92,9.92v17h-6.99v-3.59c-1.06,2.28-4.08,4.2-8.21,4.2-5.83,0-9.59-3.24-9.59-8.25s3.76-7.84,10.91-8.35Zm.64,11.89c3.71,0,6.04-2.23,6.04-6.02v-1.77l-5.25.4c-3.28.25-5.35,1.16-5.35,3.64,0,2.23,1.64,3.74,4.56,3.74Z" />
  <path class="cls-1"
    d="m237.17,118.15c7.42,0,12.24,4.4,13.08,10.42h-6.94c-.79-2.58-2.75-4.55-6.09-4.55-4.45,0-6.89,3.74-6.89,7.89s2.44,7.94,6.89,7.94c3.34,0,5.3-2.02,6.09-4.6h6.94c-.85,6.02-5.67,10.42-13.08,10.42-8.58,0-14.04-6.33-14.04-13.76s5.46-13.76,14.04-13.76Z" />
  <path class="cls-1"
    d="m254.55,108.13h7.26v14.57c1.11-2.78,3.81-4.55,7.68-4.55,6.52,0,9.85,4.3,9.85,10.78v16.14h-7.26v-15.23c0-3.29-1.48-5.72-4.93-5.72s-5.35,2.13-5.35,5.77v15.18h-7.26v-36.94Z" />
  <ellipse class="paw" cx="296.02" cy="9.45" rx="9.89" ry="9.45" />
  <ellipse class="paw" cx="322.92" cy="9.45" rx="9.89" ry="9.45" />
  <ellipse class="paw" cx="322.92" cy="36.89" rx="9.89" ry="9.45" />
  <path class="paw"
    d="m290.37,24.62c-13.67,0-13.67,17.05,0,17.05h.02c.03,13.03,17.86,13.02,17.86-.03v-17.05s-17.87.03-17.87.03Z" />
  <g class="paw">
    <path d="m91.14,173.68h9.7v.9h-8.63v5.75h8.31v.9h-8.31v6.73h-1.07v-14.28Z" />
    <path
      d="m103.44,182.47v-8.79h1.07v8.77c0,3.14,2.01,4.9,4.74,4.9s4.74-1.75,4.74-4.9v-8.77h1.07v8.79c0,3.53-2.39,5.77-5.81,5.77s-5.81-2.24-5.81-5.77Z" />
    <path d="m118.67,173.68h1.07l9.83,12.89v-12.89h1.03v14.28h-1.07l-9.85-12.89v12.89h-1v-14.28Z" />
    <path
      d="m134.26,173.68h4.32c4.93,0,7.93,3.26,7.93,7.14s-2.99,7.14-7.93,7.14h-4.32v-14.28Zm4.1,13.38c4.57,0,7.07-2.9,7.07-6.24s-2.5-6.24-7.07-6.24h-3.05v12.49h3.05Z" />
    <path
      d="m153.57,173.68h1.11l6.11,14.28h-1.11l-1.67-4.04h-7.78l-1.69,4.04h-1.09l6.11-14.28Zm4.06,9.34l-3.5-8.38-3.52,8.38h7.03Z" />
    <path
      d="m161.94,180.82c0-3.71,2.67-7.43,6.98-7.43,3.05,0,5.15,1.65,6,4.08h-1.09c-.77-1.84-2.37-3.18-4.91-3.18-3.74,0-5.92,3.35-5.92,6.53s2.18,6.53,5.92,6.53c2.54,0,4.14-1.35,4.91-3.18h1.09c-.85,2.43-2.95,4.08-6,4.08-4.31,0-6.98-3.71-6.98-7.43Z" />
    <path
      d="m177.35,183.5v-1.1h1.05v1.1c0,2.18,1.33,3.86,3.61,3.86s3.63-1.61,3.63-3.94v-9.73h1.07v9.73c0,2.92-1.88,4.83-4.7,4.83-3.03,0-4.66-2.26-4.66-4.75Z" />
    <path
      d="m194.97,173.68h1.11l6.11,14.28h-1.11l-1.67-4.04h-7.78l-1.69,4.04h-1.09l6.11-14.28Zm4.06,9.34l-3.5-8.38-3.52,8.38h7.03Z" />
  </g>
</svg>