<svg width="214" height="121" viewBox="0 0 214 121" fill="none" xmlns="http://www.w3.org/2000/svg">
<g clip-path="url(#clip0_993_512)">
<path d="M3.36294 46.5236V37.4671H0V33.212H3.36294V27.9092H8.91854V33.212H13.9855V37.4671H8.91854V46.3693C8.91854 48.1498 9.85091 49.1589 11.7156 49.1589C12.6866 49.1589 13.4968 49.0046 14.024 48.8118V53.1119C13.1753 53.4204 11.6706 53.6132 10.1338 53.6132C5.67134 53.6132 3.36294 51.2157 3.36294 46.53V46.5236Z" fill="white"/>
<path d="M26.0676 32.7422C32.7549 32.7422 36.2464 37.3122 36.2464 43.1549V44.434H20.9235C21.1229 47.455 23.0326 49.7368 26.2734 49.7368C28.8711 49.7368 30.2472 48.5734 30.9352 47.0629H35.9635C34.9926 51.0481 31.2181 53.7991 26.3119 53.7991C19.5411 53.7991 15.6058 49.1905 15.6058 43.2706C15.6058 37.3508 19.9011 32.7422 26.0676 32.7422ZM30.9352 40.7574C30.5687 38.2442 28.8261 36.5023 26.0676 36.5023C23.3091 36.5023 21.5665 38.3214 21.0778 40.7574H30.9288H30.9352Z" fill="white"/>
<path d="M39.288 33.205H44.5992V37.7365C45.2101 34.9083 47.1134 32.9736 50.4378 32.9736C51.0486 32.9736 51.653 33.0122 52.0581 33.1279V38.1607C51.653 38.1222 51.2479 38.1222 50.7207 38.1222C46.9912 38.1222 44.8436 40.3268 44.8436 44.3955V53.3363H39.288V33.205Z" fill="white"/>
<path d="M61.5875 41.1049L66.693 40.7193V39.9865C66.693 37.9747 65.5163 36.6956 63.0857 36.6956C60.8544 36.6956 59.4784 37.8975 59.2341 39.4466H53.9614C54.6108 35.4615 58.0959 32.749 63.0857 32.749C69.0464 32.749 72.21 35.77 72.21 40.3336V53.3431H66.8602V50.5921C66.05 52.334 63.7416 53.8059 60.5779 53.8059C56.1155 53.8059 53.2412 51.3313 53.2412 47.494C53.2412 43.6567 56.1219 41.497 61.5939 41.1049H61.5875ZM62.0762 50.2C64.9118 50.2 66.6994 48.4967 66.6994 45.5914V44.2352L62.687 44.5437C60.1728 44.7365 58.591 45.4372 58.591 47.3333C58.591 49.0366 59.8449 50.2 62.0762 50.2Z" fill="white"/>
<path d="M81.6172 33.205V36.3802C82.6717 34.2912 84.9415 32.7422 88.1823 32.7422C93.8151 32.7422 97.8339 37.3894 97.8339 43.2706C97.8339 49.1519 93.8601 53.7991 88.2273 53.7991C85.0251 53.7991 82.7939 52.25 81.7844 50.161V60.4581H76.2288V33.205H81.6172ZM87.0506 49.3833C90.2914 49.3833 92.3233 46.4395 92.3233 43.2642C92.3233 40.089 90.2978 37.1451 87.0506 37.1451C83.8034 37.1451 81.7779 39.819 81.7779 43.2642C81.7779 46.7094 83.887 49.3833 87.0506 49.3833Z" fill="white"/>
<path d="M109.993 32.7422C116.68 32.7422 120.172 37.3122 120.172 43.1549V44.434H104.849C105.055 47.455 106.958 49.7368 110.199 49.7368C112.797 49.7368 114.173 48.5734 114.861 47.0629H119.889C118.918 51.0481 115.144 53.7991 110.244 53.7991C103.473 53.7991 99.5378 49.1905 99.5378 43.2706C99.5378 37.3508 103.833 32.7422 110 32.7422H109.993ZM114.861 40.7574C114.494 38.2442 112.752 36.5023 109.993 36.5023C107.235 36.5023 105.492 38.3214 105.01 40.7574H114.861Z" fill="white"/>
<path d="M123.008 33.2051H128.563V44.8584C128.563 47.4101 129.618 49.2741 132.254 49.2741C134.891 49.2741 136.305 47.6094 136.305 44.8584V33.2051H141.822V53.3364H136.55V50.2768C135.617 52.3658 133.63 53.7992 130.512 53.7992C125.528 53.7992 123.014 50.4697 123.014 45.514V33.2051H123.008Z" fill="white"/>
<path d="M147.5 46.5236V37.4671H144.137V33.212H147.5V27.9092H153.055V33.212H158.122V37.4671H153.055V46.3693C153.055 48.1498 153.988 49.1589 155.853 49.1589C156.824 49.1589 157.634 49.0046 158.161 48.8118V53.1119C157.312 53.4204 155.808 53.6132 154.271 53.6132C149.808 53.6132 147.5 51.2157 147.5 46.53V46.5236Z" fill="white"/>
<path d="M168.784 41.1049L173.889 40.7193V39.9865C173.889 37.9747 172.712 36.6956 170.282 36.6956C168.05 36.6956 166.674 37.8975 166.43 39.4466H161.157C161.807 35.4615 165.292 32.749 170.282 32.749C176.242 32.749 179.406 35.77 179.406 40.3336V53.3431H174.056V50.5921C173.246 52.334 170.931 53.8059 167.774 53.8059C163.312 53.8059 160.437 51.3313 160.437 47.494C160.437 43.6567 163.318 41.497 168.79 41.1049H168.784ZM169.272 50.2C172.108 50.2 173.895 48.4967 173.895 45.5914V44.2352L169.883 44.5437C167.369 44.7365 165.787 45.4372 165.787 47.3333C165.787 49.0366 167.041 50.2 169.272 50.2Z" fill="white"/>
<path d="M2.15417 76.3349H6.64881V78.9381C7.46543 77.119 9.09868 75.9492 11.7607 75.9492C15.9532 75.9492 18.0944 78.7452 18.0944 82.9103V93.2524H13.4261V83.4952C13.4261 81.3484 12.4745 79.7865 10.2561 79.7865C8.03771 79.7865 6.81599 81.1877 6.81599 83.4952V93.2524H2.15417V76.3413V76.3349Z" fill="white"/>
<path d="M28.3181 82.9678L32.6134 82.64V82.0229C32.6134 80.3324 31.6232 79.259 29.5784 79.259C27.7072 79.259 26.5434 80.2682 26.3441 81.5666H21.9137C22.4603 78.2178 25.386 75.9424 29.5784 75.9424C34.5874 75.9424 37.2431 78.4813 37.2431 82.3186V93.2455H32.7484V90.938C32.0668 92.4035 30.1249 93.6376 27.4693 93.6376C23.7206 93.6376 21.3029 91.5551 21.3029 88.3348C21.3029 85.1146 23.7206 83.2956 28.3181 82.9678ZM28.7296 90.6102C31.1152 90.6102 32.6134 89.1769 32.6134 86.7408V85.6031L29.2376 85.8602C27.1285 86.0209 25.7975 86.6058 25.7975 88.1999C25.7975 89.6332 26.852 90.6038 28.7296 90.6038V90.6102Z" fill="white"/>
<path d="M46.6826 84.6579L57.1765 70.4785H62.4235V84.5614H65.6257V88.2059H62.4235V93.2452H57.9932V88.2059H46.6826V84.6579ZM57.9932 84.5614V75.1643L51.2801 84.5614H57.9932Z" fill="white"/>
<path d="M73.631 81.5345L75.8429 80.2361V69.502H80.479V77.5686L83.1732 75.9424V80.2682L80.479 81.8944V93.2456H75.8429V84.5619L73.631 85.8924V81.5345Z" fill="white"/>
<path d="M91.9247 82.9678L96.22 82.64V82.0229C96.22 80.3324 95.2298 79.259 93.1914 79.259C91.3203 79.259 90.1564 80.2682 89.9571 81.5666H85.5268C86.0733 78.2178 88.999 75.9424 93.1914 75.9424C98.2005 75.9424 100.856 78.4813 100.856 82.3186V93.2455H96.3615V90.938C95.6799 92.4035 93.738 93.6376 91.0824 93.6376C87.3336 93.6376 84.9159 91.5551 84.9159 88.3348C84.9159 85.1146 87.3336 83.2956 91.9311 82.9678H91.9247ZM92.3362 90.6102C94.7218 90.6102 96.22 89.1769 96.22 86.7408V85.6031L92.8442 85.8602C90.7351 86.0209 89.4041 86.6058 89.4041 88.1999C89.4041 89.6332 90.4586 90.6038 92.3362 90.6038V90.6102Z" fill="white"/>
<path d="M109.029 76.3345V79.0019C109.916 77.2472 111.819 75.9424 114.546 75.9424C119.278 75.9424 122.654 79.844 122.654 84.7868C122.654 89.7296 119.317 93.6312 114.578 93.6312C111.884 93.6312 110.013 92.3328 109.164 90.5717V99.2232H104.495V76.328H109.029V76.3345ZM113.594 89.9289C116.32 89.9289 118.024 87.4543 118.024 84.7932C118.024 82.1322 116.32 79.6511 113.594 79.6511C110.868 79.6511 109.164 81.8944 109.164 84.7932C109.164 87.6921 110.938 89.9289 113.594 89.9289Z" fill="white"/>
<path d="M131.959 82.9678L136.254 82.64V82.0229C136.254 80.3324 135.264 79.259 133.225 79.259C131.354 79.259 130.19 80.2682 129.991 81.5666H125.561C126.107 78.2178 129.033 75.9424 133.225 75.9424C138.234 75.9424 140.89 78.4813 140.89 82.3186V93.2455H136.395V90.938C135.714 92.4035 133.772 93.6376 131.116 93.6376C127.367 93.6376 124.95 91.5551 124.95 88.3348C124.95 85.1146 127.367 83.2956 131.965 82.9678H131.959ZM132.37 90.6102C134.756 90.6102 136.254 89.1769 136.254 86.7408V85.6031L132.878 85.8602C130.769 86.0209 129.438 86.6058 129.438 88.1999C129.438 89.6332 130.492 90.6038 132.37 90.6038V90.6102Z" fill="white"/>
<path d="M152.502 75.9424C157.274 75.9424 160.373 78.7705 160.913 82.64H156.451C155.943 80.9816 154.682 79.7154 152.535 79.7154C149.673 79.7154 148.104 82.1193 148.104 84.7868C148.104 87.4543 149.673 89.8903 152.535 89.8903C154.682 89.8903 155.943 88.5919 156.451 86.9336H160.913C160.366 90.803 157.267 93.6312 152.502 93.6312C146.985 93.6312 143.475 89.5625 143.475 84.7868C143.475 80.0111 146.985 75.9424 152.502 75.9424Z" fill="white"/>
<path d="M163.678 69.502H168.346V78.867C169.06 77.0801 170.796 75.9424 173.285 75.9424C177.477 75.9424 179.618 78.7063 179.618 82.8714V93.2456H174.95V83.4563C174.95 81.3416 173.998 79.7797 171.78 79.7797C169.562 79.7797 168.34 81.1488 168.34 83.4885V93.2456H163.672V69.502H163.678Z" fill="white"/>
<path d="M190.344 12.1482C193.856 12.1482 196.703 9.42874 196.703 6.0741C196.703 2.71947 193.856 0 190.344 0C186.831 0 183.984 2.71947 183.984 6.0741C183.984 9.42874 186.831 12.1482 190.344 12.1482Z" fill="white"/>
<path d="M207.641 12.1482C211.153 12.1482 214 9.42874 214 6.0741C214 2.71947 211.153 0 207.641 0C204.128 0 201.281 2.71947 201.281 6.0741C201.281 9.42874 204.128 12.1482 207.641 12.1482Z" fill="white"/>
<path d="M207.641 29.7859C211.153 29.7859 214 27.0664 214 23.7118C214 20.3572 211.153 17.6377 207.641 17.6377C204.128 17.6377 201.281 20.3572 201.281 23.7118C201.281 27.0664 204.128 29.7859 207.641 29.7859Z" fill="white"/>
<path d="M186.711 15.8249C177.921 15.8249 177.921 26.784 186.711 26.784H186.723C186.743 35.1592 198.208 35.1528 198.208 26.7648V15.8057L186.717 15.8249H186.711Z" fill="white"/>
<path d="M58.6038 111.635H64.8409V112.213H59.2918V115.909H64.6352V116.488H59.2918V120.813H58.6038V111.635Z" fill="white"/>
<path d="M66.5128 117.285V111.635H67.2008V117.272C67.2008 119.29 68.4933 120.421 70.2487 120.421C72.0041 120.421 73.2966 119.296 73.2966 117.272V111.635H73.9846V117.285C73.9846 119.554 72.4478 120.993 70.2487 120.993C68.0496 120.993 66.5128 119.554 66.5128 117.285Z" fill="white"/>
<path d="M76.3059 111.635H76.9939L83.3147 119.92V111.635H83.977V120.813H83.289L76.9553 112.528V120.813H76.3123V111.635H76.3059Z" fill="white"/>
<path d="M86.3304 111.635H89.1082C92.2783 111.635 94.2073 113.73 94.2073 116.224C94.2073 118.718 92.2847 120.813 89.1082 120.813H86.3304V111.635ZM88.9668 120.235C91.9053 120.235 93.5129 118.371 93.5129 116.224C93.5129 114.077 91.9053 112.213 88.9668 112.213H87.0056V120.241H88.9668V120.235Z" fill="white"/>
<path d="M98.747 111.635H99.4607L103.39 120.813H102.676L101.602 118.217H96.5993L95.5126 120.813H94.8118L98.7406 111.635H98.747ZM101.358 117.638L99.1071 112.252L96.8437 117.638H101.364H101.358Z" fill="white"/>
<path d="M104.129 116.224C104.129 113.839 105.846 111.448 108.617 111.448C110.578 111.448 111.929 112.509 112.475 114.071H111.774C111.279 112.888 110.25 112.027 108.617 112.027C106.212 112.027 104.81 114.18 104.81 116.224C104.81 118.268 106.212 120.421 108.617 120.421C110.25 120.421 111.279 119.553 111.774 118.377H112.475C111.929 119.939 110.578 121 108.617 121C105.846 121 104.129 118.615 104.129 116.224Z" fill="white"/>
<path d="M114.038 117.947V117.24H114.713V117.947C114.713 119.348 115.568 120.428 117.034 120.428C118.5 120.428 119.368 119.393 119.368 117.896V111.642H120.056V117.896C120.056 119.773 118.848 121 117.034 121C115.086 121 114.038 119.548 114.038 117.947Z" fill="white"/>
<path d="M125.368 111.635H126.081L130.01 120.813H129.296L128.223 118.217H123.22L122.133 120.813H121.432L125.361 111.635H125.368ZM127.978 117.638L125.728 112.252L123.464 117.638H127.985H127.978Z" fill="white"/>
</g>
<defs>
<clipPath id="clip0_993_512">
<rect width="214" height="121" fill="white"/>
</clipPath>
</defs>
</svg>
