<svg width="392" height="351" viewBox="0 0 392 351" fill="none" xmlns="http://www.w3.org/2000/svg">
<path d="M349.62 195.99C467.37 78.2401 313.6 -75.54 195.84 42.21L195.68 42.37C77.9797 -74.83 -75.4403 78.78 42.2197 196.44L196 350.22L349.63 196L349.62 195.99Z" fill="#E4FF00"/>
<path d="M90.7799 130.44V120.09H87.1099V115.22H90.7799V109.16H96.8399V115.22H102.37V120.09H96.8399V130.26C96.8399 132.29 97.8599 133.45 99.8899 133.45C100.95 133.45 101.84 133.27 102.41 133.05V137.96C101.48 138.31 99.8399 138.54 98.1599 138.54C93.2899 138.54 90.7699 135.8 90.7699 130.45L90.7799 130.44Z" fill="black"/>
<path d="M115.55 114.69C122.85 114.69 126.65 119.91 126.65 126.59V128.05H109.93C110.15 131.5 112.23 134.11 115.77 134.11C118.6 134.11 120.1 132.78 120.86 131.06H126.35C125.29 135.62 121.17 138.76 115.82 138.76C108.43 138.76 104.14 133.5 104.14 126.73C104.14 119.96 108.83 114.7 115.55 114.7V114.69ZM120.86 123.85C120.46 120.97 118.56 118.98 115.55 118.98C112.54 118.98 110.64 121.06 110.11 123.85H120.86Z" fill="black"/>
<path d="M129.97 115.22H135.76V120.4C136.42 117.17 138.5 114.96 142.13 114.96C142.79 114.96 143.46 115 143.9 115.14V120.89C143.46 120.85 143.02 120.85 142.44 120.85C138.37 120.85 136.03 123.37 136.03 128.02V138.24H129.97V115.24V115.22Z" fill="black"/>
<path d="M154.3 124.25L159.87 123.81V122.97C159.87 120.67 158.59 119.21 155.93 119.21C153.5 119.21 151.99 120.58 151.73 122.35H145.98C146.69 117.79 150.49 114.7 155.93 114.7C162.43 114.7 165.88 118.15 165.88 123.37V138.23H160.04V135.09C159.16 137.08 156.63 138.76 153.18 138.76C148.31 138.76 145.17 135.93 145.17 131.55C145.17 127.17 148.31 124.69 154.28 124.25H154.3ZM154.83 134.65C157.93 134.65 159.87 132.7 159.87 129.39V127.84L155.49 128.19C152.75 128.41 151.02 129.21 151.02 131.38C151.02 133.33 152.39 134.65 154.82 134.65H154.83Z" fill="black"/>
<path d="M176.15 115.22V118.85C177.3 116.46 179.78 114.69 183.32 114.69C189.47 114.69 193.85 120 193.85 126.72C193.85 133.44 189.51 138.75 183.37 138.75C179.88 138.75 177.44 136.98 176.34 134.59V146.36H170.28V115.22H176.16H176.15ZM182.08 133.71C185.62 133.71 187.83 130.35 187.83 126.72C187.83 123.09 185.62 119.73 182.08 119.73C178.54 119.73 176.33 122.78 176.33 126.72C176.33 130.66 178.63 133.71 182.08 133.71Z" fill="black"/>
<path d="M207.11 114.69C214.41 114.69 218.21 119.91 218.21 126.59V128.05H201.49C201.71 131.5 203.79 134.11 207.33 134.11C210.16 134.11 211.66 132.78 212.42 131.06H217.91C216.85 135.62 212.73 138.76 207.38 138.76C199.99 138.76 195.7 133.5 195.7 126.73C195.7 119.96 200.39 114.7 207.11 114.7V114.69ZM212.42 123.85C212.02 120.97 210.12 118.98 207.11 118.98C204.1 118.98 202.2 121.06 201.67 123.85H212.42Z" fill="black"/>
<path d="M221.31 115.22H227.37V128.53C227.37 131.45 228.52 133.57 231.4 133.57C234.28 133.57 235.82 131.67 235.82 128.53V115.22H241.84V138.22H236.09V134.73C235.07 137.12 232.91 138.76 229.5 138.76C224.06 138.76 221.32 134.96 221.32 129.29V115.22H221.31Z" fill="black"/>
<path d="M248.03 130.44V120.09H244.36V115.22H248.03V109.16H254.09V115.22H259.62V120.09H254.09V130.26C254.09 132.29 255.11 133.45 257.14 133.45C258.2 133.45 259.09 133.27 259.66 133.05V137.96C258.73 138.31 257.09 138.54 255.41 138.54C250.54 138.54 248.02 135.8 248.02 130.45L248.03 130.44Z" fill="black"/>
<path d="M271.25 124.25L276.82 123.81V122.97C276.82 120.67 275.54 119.21 272.88 119.21C270.45 119.21 268.94 120.58 268.68 122.35H262.93C263.64 117.79 267.44 114.7 272.88 114.7C279.38 114.7 282.83 118.15 282.83 123.37V138.23H276.99V135.09C276.11 137.08 273.58 138.76 270.13 138.76C265.26 138.76 262.12 135.93 262.12 131.55C262.12 127.17 265.26 124.69 271.23 124.25H271.25ZM271.78 134.65C274.88 134.65 276.82 132.7 276.82 129.39V127.84L272.44 128.19C269.7 128.41 267.97 129.21 267.97 131.38C267.97 133.33 269.34 134.65 271.77 134.65H271.78Z" fill="black"/>
<path d="M89.46 164.5H94.37V167.47C95.26 165.39 97.05 164.05 99.95 164.05C104.52 164.05 106.86 167.25 106.86 172V183.82H101.77V172.67C101.77 170.22 100.73 168.43 98.31 168.43C95.89 168.43 94.56 170.03 94.56 172.67V183.82H89.47V164.49L89.46 164.5Z" fill="black"/>
<path d="M118.01 172.08L122.69 171.71V171C122.69 169.07 121.61 167.84 119.38 167.84C117.34 167.84 116.07 168.99 115.85 170.48H111.02C111.61 166.65 114.81 164.05 119.38 164.05C124.84 164.05 127.74 166.95 127.74 171.34V183.83H122.83V181.19C122.09 182.86 119.97 184.28 117.07 184.28C112.98 184.28 110.34 181.9 110.34 178.22C110.34 174.54 112.98 172.46 118 172.09L118.01 172.08ZM118.46 180.82C121.06 180.82 122.7 179.18 122.7 176.4V175.1L119.02 175.4C116.72 175.59 115.27 176.25 115.27 178.08C115.27 179.72 116.42 180.83 118.47 180.83L118.46 180.82Z" fill="black"/>
<path d="M138.04 174.02L149.49 157.81H155.21V173.91H158.7V178.07H155.21V183.83H150.38V178.07H138.04V174.02ZM150.38 173.91V163.17L143.06 173.91H150.38Z" fill="black"/>
<path d="M167.439 170.45L169.859 168.96V156.69H174.919V165.91L177.859 164.05V168.99L174.919 170.85V183.82H169.859V173.9L167.439 175.42V170.44V170.45Z" fill="black"/>
<path d="M187.399 172.08L192.079 171.71V171C192.079 169.07 191 167.84 188.77 167.84C186.73 167.84 185.46 168.99 185.24 170.48H180.41C181 166.65 184.2 164.05 188.77 164.05C194.23 164.05 197.13 166.95 197.13 171.34V183.83H192.219V181.19C191.479 182.86 189.36 184.28 186.46 184.28C182.37 184.28 179.729 181.9 179.729 178.22C179.729 174.54 182.369 172.46 187.389 172.09L187.399 172.08ZM187.85 180.82C190.45 180.82 192.089 179.18 192.089 176.4V175.1L188.41 175.4C186.109 175.59 184.66 176.25 184.66 178.08C184.66 179.72 185.809 180.83 187.859 180.83L187.85 180.82Z" fill="black"/>
<path d="M206.06 164.5V167.55C207.03 165.54 209.11 164.06 212.08 164.06C217.25 164.06 220.93 168.52 220.93 174.17C220.93 179.82 217.29 184.28 212.12 184.28C209.18 184.28 207.14 182.79 206.21 180.79V190.68H201.12V164.51H206.06V164.5ZM211.04 180.04C214.01 180.04 215.87 177.22 215.87 174.17C215.87 171.12 214.01 168.3 211.04 168.3C208.07 168.3 206.21 170.86 206.21 174.17C206.21 177.48 208.14 180.04 211.04 180.04Z" fill="black"/>
<path d="M231.069 172.08L235.749 171.71V171C235.749 169.07 234.669 167.84 232.439 167.84C230.399 167.84 229.129 168.99 228.909 170.48H224.079C224.669 166.65 227.869 164.05 232.439 164.05C237.899 164.05 240.799 166.95 240.799 171.34V183.83H235.889V181.19C235.149 182.86 233.029 184.28 230.129 184.28C226.039 184.28 223.399 181.9 223.399 178.22C223.399 174.54 226.039 172.46 231.059 172.09L231.069 172.08ZM231.519 180.82C234.119 180.82 235.759 179.18 235.759 176.4V175.1L232.079 175.4C229.779 175.59 228.329 176.25 228.329 178.08C228.329 179.72 229.479 180.83 231.529 180.83L231.519 180.82Z" fill="black"/>
<path d="M253.49 164.06C258.69 164.06 262.08 167.29 262.67 171.72H257.8C257.24 169.82 255.87 168.37 253.53 168.37C250.41 168.37 248.7 171.12 248.7 174.17C248.7 177.22 250.41 180.01 253.53 180.01C255.87 180.01 257.25 178.52 257.8 176.63H262.67C262.08 181.05 258.69 184.29 253.49 184.29C247.47 184.29 243.64 179.64 243.64 174.18C243.64 168.72 247.47 164.07 253.49 164.07V164.06Z" fill="black"/>
<path d="M265.68 156.7H270.77V167.41C271.55 165.37 273.45 164.06 276.16 164.06C280.73 164.06 283.07 167.22 283.07 171.98V183.84H277.98V172.65C277.98 170.23 276.94 168.45 274.52 168.45C272.1 168.45 270.77 170.01 270.77 172.69V183.84H265.68V156.71V156.7Z" fill="black"/>
<path d="M294.77 91.16C298.603 91.16 301.71 88.0529 301.71 84.22C301.71 80.3872 298.603 77.28 294.77 77.28C290.937 77.28 287.83 80.3872 287.83 84.22C287.83 88.0529 290.937 91.16 294.77 91.16Z" fill="black"/>
<path d="M313.64 91.16C317.473 91.16 320.58 88.0529 320.58 84.22C320.58 80.3872 317.473 77.28 313.64 77.28C309.807 77.28 306.7 80.3872 306.7 84.22C306.7 88.0529 309.807 91.16 313.64 91.16Z" fill="black"/>
<path d="M313.64 111.31C317.473 111.31 320.58 108.203 320.58 104.37C320.58 100.537 317.473 97.4301 313.64 97.4301C309.807 97.4301 306.7 100.537 306.7 104.37C306.7 108.203 309.807 111.31 313.64 111.31Z" fill="black"/>
<path d="M290.81 95.36C281.22 95.36 281.22 107.89 290.81 107.89H290.82C290.84 117.46 303.35 117.45 303.35 107.87V95.34L290.81 95.36Z" fill="black"/>
<path d="M151.05 204.84H157.85V205.5H151.8V209.73H157.63V210.39H151.8V215.34H151.05V204.85V204.84Z" fill="black"/>
<path d="M159.68 211.3V204.84H160.43V211.28C160.43 213.59 161.84 214.88 163.76 214.88C165.68 214.88 167.09 213.59 167.09 211.28V204.84H167.84V211.3C167.84 213.89 166.16 215.54 163.76 215.54C161.36 215.54 159.68 213.89 159.68 211.3Z" fill="black"/>
<path d="M170.36 204.84H171.11L178 214.31V204.84H178.72V215.33H177.97L171.06 205.86V215.33H170.36V204.84Z" fill="black"/>
<path d="M181.3 204.84H184.33C187.79 204.84 189.89 207.24 189.89 210.08C189.89 212.92 187.79 215.33 184.33 215.33H181.3V204.84ZM184.18 214.67C187.39 214.67 189.14 212.54 189.14 210.08C189.14 207.62 187.39 205.5 184.18 205.5H182.04V214.67H184.18Z" fill="black"/>
<path d="M194.84 204.84H195.62L199.9 215.33H199.12L197.95 212.36H192.5L191.32 215.33H190.56L194.85 204.84H194.84ZM197.69 211.7L195.23 205.54L192.76 211.7H197.69Z" fill="black"/>
<path d="M200.72 210.09C200.72 207.36 202.59 204.64 205.62 204.64C207.76 204.64 209.23 205.85 209.83 207.64H209.07C208.53 206.29 207.41 205.3 205.62 205.3C203 205.3 201.47 207.76 201.47 210.09C201.47 212.42 203 214.88 205.62 214.88C207.4 214.88 208.53 213.89 209.07 212.54H209.83C209.23 214.32 207.76 215.54 205.62 215.54C202.59 215.54 200.72 212.81 200.72 210.08V210.09Z" fill="black"/>
<path d="M211.52 212.05V211.24H212.25V212.05C212.25 213.65 213.18 214.88 214.78 214.88C216.38 214.88 217.33 213.7 217.33 211.99V204.84H218.08V211.99C218.08 214.13 216.76 215.54 214.78 215.54C212.65 215.54 211.51 213.88 211.51 212.05H211.52Z" fill="black"/>
<path d="M223.88 204.84H224.66L228.95 215.33H228.17L227 212.36H221.55L220.37 215.33H219.61L223.9 204.84H223.88ZM226.73 211.7L224.27 205.54L221.8 211.7H226.73Z" fill="black"/>
</svg>
