<svg width="270" height="34" viewBox="0 0 270 34" fill="none" xmlns="http://www.w3.org/2000/svg">
<g clip-path="url(#clip0_530_4431)">
<path d="M14.0745 30.9117C12.5132 32.3631 10.5615 33.0888 8.21952 33.0888C5.87752 33.0888 3.91834 32.3631 2.342 30.9117C0.780667 29.4452 0 27.563 0 25.2649C0 22.9668 0.780667 21.0921 2.342 19.6407C3.91834 18.1742 5.87752 17.4409 8.21952 17.4409C10.5615 17.4409 12.5132 18.1742 14.0745 19.6407C15.6509 21.0921 16.439 22.9668 16.439 25.2649C16.439 27.563 15.6509 29.4452 14.0745 30.9117ZM5.60729 27.9635C6.28287 28.6892 7.15362 29.0521 8.21952 29.0521C9.28543 29.0521 10.1487 28.6892 10.8092 27.9635C11.4848 27.2378 11.8226 26.3382 11.8226 25.2649C11.8226 24.1914 11.4848 23.2919 10.8092 22.5662C10.1487 21.8405 9.28543 21.4776 8.21952 21.4776C7.15362 21.4776 6.28287 21.8405 5.60729 22.5662C4.94673 23.2919 4.61644 24.1914 4.61644 25.2649C4.61644 26.3382 4.94673 27.2378 5.60729 27.9635Z" fill="#333232"/>
<path d="M22.6008 32.8167H18.052V17.6904H26.0688C27.7652 17.6904 29.0864 18.1893 30.0322 19.1872C30.993 20.1699 31.4734 21.4021 31.4734 22.8838C31.4734 24.3502 30.993 25.5824 30.0322 26.5802C29.0864 27.563 27.7652 28.0543 26.0688 28.0543H22.6008V32.8167ZM25.4834 24.0629C25.8887 24.0629 26.219 23.9648 26.4742 23.7681C26.7293 23.5564 26.8571 23.2616 26.8571 22.8838C26.8571 22.4907 26.7293 22.1958 26.4742 21.9993C26.219 21.7876 25.8887 21.6818 25.4834 21.6818H22.6008V24.0629H25.4834Z" fill="#333232"/>
<path d="M44.3569 32.8167H32.9622V17.6904H44.3569V21.6818H37.5111V23.1786H44.1993V27.1699H37.5111V28.8254H44.3569V32.8167Z" fill="#333232"/>
<path d="M60.8343 32.8167H56.4656L50.926 25.1515V32.8167H46.3769V17.6904H51.0609L56.2855 24.8567V17.6904H60.8343V32.8167Z" fill="#333232"/>
<path d="M79.1945 32.8167H74.6454V21.6818H70.6145V17.6904H83.2028V21.6818H79.1945V32.8167Z" fill="#333232"/>
<path d="M96.2129 32.8167H84.818V17.6904H96.2129V21.6818H89.3669V23.1786H96.0551V27.1699H89.3669V28.8254H96.2129V32.8167Z" fill="#333232"/>
<path d="M105.687 33.0888C103.315 33.0888 101.341 32.3631 99.7642 30.9117C98.2028 29.4452 97.4221 27.563 97.4221 25.2649C97.4221 22.9517 98.2028 21.0694 99.7642 19.618C101.326 18.1666 103.3 17.4409 105.687 17.4409C107.488 17.4409 108.937 17.8642 110.033 18.7109C111.144 19.5575 111.97 20.6007 112.51 21.8405L108.592 23.6774C108.397 23.0726 108.029 22.5586 107.488 22.1353C106.948 21.6968 106.347 21.4776 105.687 21.4776C104.606 21.4776 103.728 21.8405 103.052 22.5662C102.376 23.2919 102.039 24.1914 102.039 25.2649C102.039 26.3382 102.376 27.2378 103.052 27.9635C103.728 28.6892 104.606 29.0521 105.687 29.0521C106.347 29.0521 106.948 28.8404 107.488 28.4171C108.029 27.9786 108.397 27.457 108.592 26.8524L112.51 28.6665C112.27 29.2259 111.97 29.7475 111.609 30.2313C111.249 30.7 110.799 31.1612 110.258 31.6147C109.718 32.0683 109.05 32.431 108.254 32.7033C107.473 32.9603 106.618 33.0888 105.687 33.0888Z" fill="#333232"/>
<path d="M128.415 32.8167H123.866V27.0338H118.484V32.8167H113.935V17.6904H118.484V23.0425H123.866V17.6904H128.415V32.8167Z" fill="#333232"/>
<path d="M64.8654 33.2702H62.0504L67.3876 17.2368H70.2025L64.8654 33.2702Z" fill="#47A1CB"/>
<path fill-rule="evenodd" clip-rule="evenodd" d="M149.466 23.8641C147.673 23.1591 146.125 22.5503 146.125 21.1455C146.125 19.5231 147.592 18.9437 148.966 18.9437C151.341 18.9437 152.603 20.2661 152.616 20.279L152.737 20.4097L153.8 18.6128L153.735 18.5389C153.673 18.4699 152.201 16.8462 149.026 16.8462C146.497 16.8462 143.776 18.1914 143.776 21.1462C143.776 23.9395 146.281 24.9386 148.49 25.8202C150.285 26.5366 151.835 27.1555 151.835 28.5474C151.835 30.1103 150.394 30.8094 148.966 30.8094C146.266 30.8094 144.62 29.0435 144.603 29.0256L144.494 28.9071L143.232 30.5919L143.303 30.6745C143.324 30.6967 143.804 31.2437 144.743 31.7951C145.604 32.3026 147.031 32.9078 148.936 32.9078C151.978 32.9078 154.185 31.0736 154.185 28.5474C154.185 25.719 151.677 24.7327 149.466 23.8641ZM170.348 24.8023C170.348 28.1713 167.846 30.8094 164.653 30.8094C161.46 30.8094 158.958 28.1713 158.958 24.803C158.958 21.5331 161.46 18.9739 164.653 18.9739C167.847 18.9739 170.349 21.5331 170.349 24.803L170.348 24.8023ZM164.653 16.8469C160.143 16.8469 156.61 20.3415 156.61 24.8037C156.61 29.3478 160.143 32.9085 164.653 32.9085C169.164 32.9085 172.698 29.3478 172.698 24.8037C172.698 20.3415 169.164 16.8469 164.653 16.8469H164.653ZM182.648 11.1635C182.335 11.1192 182.02 11.0988 181.705 11.1025C180.111 11.1025 176.403 11.6603 176.403 16.8326V17.4161H174.366V19.3918H176.403V32.5596H178.69V19.3918H182.521V17.4154H178.69V16.8318C178.69 15.4743 179.11 13.1958 181.912 13.1958C182.308 13.1958 182.597 13.2532 182.6 13.2532L182.759 13.2855V11.1829L182.648 11.1628V11.1635ZM193.444 30.6903L193.279 30.7262C193.059 30.7677 192.836 30.7872 192.612 30.7843C191.384 30.7843 189.325 30.2747 189.325 26.8626V19.4341H193.142V17.4205H189.324V12.9934H187.022V17.4197H184.992V19.4333H186.991V27.0751C186.991 32.1612 190.398 32.9207 192.43 32.9207C192.981 32.9207 193.318 32.8604 193.332 32.8575L193.444 32.8374V30.6895V30.6903ZM198.097 27.9874C198.097 27.9874 199.769 29.6724 202.246 29.6724C203.321 29.6724 204.245 29.1914 204.245 28.289C204.245 26.0026 196.843 26.3034 196.843 21.3709C196.843 18.5138 199.381 16.8583 202.664 16.8583C206.097 16.8583 207.767 18.6028 207.767 18.6028L206.365 21.4312C206.365 21.4312 204.962 20.1074 202.634 20.1074C201.649 20.1074 200.694 20.5282 200.694 21.4908C200.694 23.6566 208.097 23.3859 208.097 28.3178C208.097 30.8748 205.888 32.9193 202.276 32.9193C198.485 32.9193 196.365 30.6637 196.365 30.6637L198.097 27.9874ZM221.238 22.9954C221.178 20.9194 219.894 19.806 218.223 19.806C216.284 19.806 214.939 21.0098 214.581 22.9954H221.238ZM218.313 16.8583C222.701 16.8583 225.059 20.0765 225.059 24.1376C225.059 24.5884 224.97 25.6121 224.97 25.6121H214.463C214.701 28.2897 216.761 29.6724 219.029 29.6724C221.477 29.6724 223.417 27.9874 223.417 27.9874L224.88 30.7254C224.88 30.7254 222.551 32.9199 218.76 32.9199C213.715 32.9199 210.581 29.2517 210.581 24.8899C210.581 20.1677 213.776 16.8583 218.313 16.8583ZM228.874 17.2202H232.517V19.867C232.517 20.4376 232.457 20.9495 232.457 20.9495H232.516C233.203 18.7542 235.024 17.0091 237.352 17.0091C237.71 17.0091 238.038 17.0694 238.038 17.0694V20.8296C238.038 20.8296 237.651 20.7694 237.143 20.7694C235.531 20.7694 233.71 21.7011 232.994 23.9876C232.755 24.7391 232.666 25.5812 232.666 26.4836V32.5596H228.874V17.2202ZM239.689 17.2202H243.689L246.853 26.724C247.153 27.6271 247.362 28.6465 247.389 28.6465H247.451C247.48 28.6465 247.689 27.6271 247.988 26.724L251.153 17.2194H255.152L249.689 32.5596H245.212L239.689 17.2202ZM266.742 22.9954C266.683 20.9194 265.399 19.806 263.728 19.806C261.787 19.806 260.444 21.0098 260.086 22.9954H266.742ZM263.818 16.8583C268.206 16.8583 270.564 20.0765 270.564 24.1376C270.564 24.5884 270.474 25.6121 270.474 25.6121H259.967C260.206 28.2897 262.265 29.6724 264.534 29.6724C266.981 29.6724 268.922 27.9874 268.922 27.9874L270.385 30.7254C270.385 30.7254 268.056 32.9199 264.265 32.9199C259.221 32.9199 256.086 29.2517 256.086 24.8899C256.086 20.1677 259.28 16.8583 263.818 16.8583Z" fill="#333232"/>
<rect x="135" y="17.2368" width="1.64635" height="16.5795" fill="#7A7A7A"/>
<path d="M4.6875 11.7314H1.32102V0.822354H4.83665C5.89489 0.822354 6.80043 1.04075 7.55327 1.47754C8.30611 1.91078 8.88317 2.534 9.28445 3.34721C9.68572 4.15687 9.88636 5.12633 9.88636 6.25559C9.88636 7.39196 9.68395 8.37029 9.27912 9.19061C8.87429 10.0074 8.2848 10.6359 7.51065 11.0763C6.73651 11.5131 5.79545 11.7314 4.6875 11.7314ZM2.64205 10.5596H4.60227C5.50426 10.5596 6.25178 10.3856 6.84482 10.0376C7.43786 9.68954 7.87997 9.19416 8.17116 8.5514C8.46236 7.90865 8.60795 7.14338 8.60795 6.25559C8.60795 5.37491 8.46413 4.61674 8.17649 3.98109C7.88885 3.34189 7.45916 2.85183 6.88743 2.51092C6.3157 2.16646 5.60369 1.99423 4.75142 1.99423H2.64205V10.5596ZM15.3622 11.9019C14.5739 11.9019 13.8938 11.7279 13.3221 11.3799C12.7539 11.0283 12.3153 10.5383 12.0064 9.90971C11.701 9.27761 11.5483 8.54252 11.5483 7.70446C11.5483 6.86639 11.701 6.12775 12.0064 5.48855C12.3153 4.84579 12.745 4.34508 13.2955 3.98642C13.8494 3.6242 14.4957 3.44309 15.2344 3.44309C15.6605 3.44309 16.0813 3.51412 16.4968 3.65616C16.9123 3.79821 17.2905 4.02903 17.6314 4.34863C17.9723 4.66468 18.244 5.08372 18.4464 5.60574C18.6488 6.12775 18.75 6.77051 18.75 7.534V8.06667H12.4432V6.98002H17.4716C17.4716 6.51838 17.3793 6.10645 17.1946 5.74423C17.0135 5.38201 16.7543 5.09615 16.4169 4.88663C16.0831 4.67711 15.6889 4.57235 15.2344 4.57235C14.7337 4.57235 14.3004 4.69664 13.9347 4.94522C13.5724 5.19025 13.2937 5.50985 13.0984 5.90403C12.9031 6.29821 12.8054 6.72079 12.8054 7.17179V7.89622C12.8054 8.51412 12.9119 9.03791 13.125 9.4676C13.3416 9.89373 13.6417 10.2187 14.0252 10.4424C14.4087 10.6626 14.8544 10.7726 15.3622 10.7726C15.6925 10.7726 15.9908 10.7265 16.2571 10.6341C16.527 10.5383 16.7596 10.3962 16.9549 10.208C17.1502 10.0162 17.3011 9.77832 17.4077 9.49423L18.6222 9.83514C18.4943 10.2471 18.2795 10.6093 17.9776 10.9218C17.6758 11.2307 17.3029 11.4722 16.859 11.6462C16.4151 11.8167 15.9162 11.9019 15.3622 11.9019ZM27.1036 3.54963L24.078 11.7314H22.7996L19.7741 3.54963H21.1377L23.3962 10.0695H23.4814L25.74 3.54963H27.1036ZM31.9003 11.9019C31.1119 11.9019 30.4319 11.7279 29.8602 11.3799C29.292 11.0283 28.8534 10.5383 28.5445 9.90971C28.2391 9.27761 28.0864 8.54252 28.0864 7.70446C28.0864 6.86639 28.2391 6.12775 28.5445 5.48855C28.8534 4.84579 29.2831 4.34508 29.8335 3.98642C30.3875 3.6242 31.0338 3.44309 31.7725 3.44309C32.1986 3.44309 32.6194 3.51412 33.0349 3.65616C33.4504 3.79821 33.8286 4.02903 34.1695 4.34863C34.5104 4.66468 34.782 5.08372 34.9845 5.60574C35.1869 6.12775 35.2881 6.77051 35.2881 7.534V8.06667H28.9813V6.98002H34.0097C34.0097 6.51838 33.9173 6.10645 33.7327 5.74423C33.5516 5.38201 33.2923 5.09615 32.955 4.88663C32.6212 4.67711 32.227 4.57235 31.7725 4.57235C31.2718 4.57235 30.8385 4.69664 30.4727 4.94522C30.1105 5.19025 29.8318 5.50985 29.6365 5.90403C29.4411 6.29821 29.3435 6.72079 29.3435 7.17179V7.89622C29.3435 8.51412 29.45 9.03791 29.6631 9.4676C29.8797 9.89373 30.1798 10.2187 30.5633 10.4424C30.9468 10.6626 31.3925 10.7726 31.9003 10.7726C32.2306 10.7726 32.5289 10.7265 32.7952 10.6341C33.0651 10.5383 33.2977 10.3962 33.493 10.208C33.6883 10.0162 33.8392 9.77832 33.9458 9.49423L35.1602 9.83514C35.0324 10.2471 34.8176 10.6093 34.5157 10.9218C34.2139 11.2307 33.841 11.4722 33.3971 11.6462C32.9532 11.8167 32.4543 11.9019 31.9003 11.9019ZM38.4575 0.822354V11.7314H37.2004V0.822354H38.4575ZM44.0838 11.9019C43.3452 11.9019 42.6971 11.7261 42.1396 11.3746C41.5856 11.023 41.1523 10.5312 40.8398 9.89906C40.5309 9.26696 40.3764 8.52832 40.3764 7.68315C40.3764 6.83088 40.5309 6.08691 40.8398 5.45126C41.1523 4.81561 41.5856 4.322 42.1396 3.97044C42.6971 3.61887 43.3452 3.44309 44.0838 3.44309C44.8224 3.44309 45.4688 3.61887 46.0227 3.97044C46.5803 4.322 47.0135 4.81561 47.3224 5.45126C47.6349 6.08691 47.7912 6.83088 47.7912 7.68315C47.7912 8.52832 47.6349 9.26696 47.3224 9.89906C47.0135 10.5312 46.5803 11.023 46.0227 11.3746C45.4688 11.7261 44.8224 11.9019 44.0838 11.9019ZM44.0838 10.7726C44.6449 10.7726 45.1065 10.6288 45.4688 10.3412C45.831 10.0535 46.0991 9.67534 46.2731 9.20659C46.4471 8.73784 46.5341 8.23002 46.5341 7.68315C46.5341 7.13627 46.4471 6.62669 46.2731 6.15439C46.0991 5.68208 45.831 5.30034 45.4688 5.00914C45.1065 4.71795 44.6449 4.57235 44.0838 4.57235C43.5227 4.57235 43.0611 4.71795 42.6989 5.00914C42.3366 5.30034 42.0685 5.68208 41.8945 6.15439C41.7205 6.62669 41.6335 7.13627 41.6335 7.68315C41.6335 8.23002 41.7205 8.73784 41.8945 9.20659C42.0685 9.67534 42.3366 10.0535 42.6989 10.3412C43.0611 10.6288 43.5227 10.7726 44.0838 10.7726ZM49.7101 14.7996V3.54963H50.9246V4.84934H51.0738C51.1661 4.7073 51.2939 4.52619 51.4573 4.30602C51.6242 4.0823 51.8621 3.88343 52.1711 3.70943C52.4836 3.53187 52.9062 3.44309 53.4388 3.44309C54.1278 3.44309 54.735 3.61532 55.2606 3.95978C55.7861 4.30424 56.1963 4.79252 56.491 5.42463C56.7858 6.05673 56.9331 6.80247 56.9331 7.66184C56.9331 8.52832 56.7858 9.27939 56.491 9.91504C56.1963 10.5471 55.7879 11.0372 55.2659 11.3852C54.7439 11.7297 54.142 11.9019 53.4601 11.9019C52.9346 11.9019 52.5138 11.8149 52.1977 11.6409C51.8817 11.4633 51.6384 11.2627 51.468 11.039C51.2975 10.8117 51.1661 10.6235 51.0738 10.4743H50.9672V14.7996H49.7101ZM50.9459 7.64054C50.9459 8.25843 51.0365 8.80353 51.2176 9.27583C51.3987 9.74458 51.6633 10.1121 52.0113 10.3785C52.3593 10.6412 52.7854 10.7726 53.2897 10.7726C53.8153 10.7726 54.2538 10.6341 54.6054 10.3572C54.9605 10.0766 55.2268 9.7002 55.4044 9.22789C55.5855 8.75204 55.676 8.22292 55.676 7.64054C55.676 7.06525 55.5873 6.54679 55.4097 6.08514C55.2357 5.61994 54.9711 5.2524 54.616 4.98251C54.2645 4.70907 53.8224 4.57235 53.2897 4.57235C52.7783 4.57235 52.3486 4.70197 52.0006 4.9612C51.6526 5.21689 51.3898 5.57555 51.2123 6.0372C51.0347 6.49529 50.9459 7.02974 50.9459 7.64054ZM62.2812 11.9019C61.4928 11.9019 60.8128 11.7279 60.241 11.3799C59.6729 11.0283 59.2343 10.5383 58.9253 9.90971C58.6199 9.27761 58.4672 8.54252 58.4672 7.70446C58.4672 6.86639 58.6199 6.12775 58.9253 5.48855C59.2343 4.84579 59.664 4.34508 60.2144 3.98642C60.7684 3.6242 61.4147 3.44309 62.1533 3.44309C62.5795 3.44309 63.0003 3.51412 63.4157 3.65616C63.8312 3.79821 64.2094 4.02903 64.5503 4.34863C64.8912 4.66468 65.1629 5.08372 65.3653 5.60574C65.5677 6.12775 65.6689 6.77051 65.6689 7.534V8.06667H59.3621V6.98002H64.3905C64.3905 6.51838 64.2982 6.10645 64.1135 5.74423C63.9324 5.38201 63.6732 5.09615 63.3358 4.88663C63.002 4.67711 62.6079 4.57235 62.1533 4.57235C61.6526 4.57235 61.2194 4.69664 60.8536 4.94522C60.4914 5.19025 60.2126 5.50985 60.0173 5.90403C59.822 6.29821 59.7243 6.72079 59.7243 7.17179V7.89622C59.7243 8.51412 59.8309 9.03791 60.0439 9.4676C60.2606 9.89373 60.5606 10.2187 60.9442 10.4424C61.3277 10.6626 61.7733 10.7726 62.2812 10.7726C62.6114 10.7726 62.9097 10.7265 63.176 10.6341C63.4459 10.5383 63.6785 10.3962 63.8738 10.208C64.0692 10.0162 64.2201 9.77832 64.3266 9.49423L65.5411 9.83514C65.4133 10.2471 65.1984 10.6093 64.8966 10.9218C64.5947 11.2307 64.2219 11.4722 63.778 11.6462C63.3341 11.8167 62.8351 11.9019 62.2812 11.9019ZM70.6707 11.9019C69.9889 11.9019 69.387 11.7297 68.865 11.3852C68.343 11.0372 67.9346 10.5471 67.6398 9.91504C67.3451 9.27939 67.1977 8.52832 67.1977 7.66184C67.1977 6.80247 67.3451 6.05673 67.6398 5.42463C67.9346 4.79252 68.3447 4.30424 68.8703 3.95978C69.3959 3.61532 70.0031 3.44309 70.692 3.44309C71.2247 3.44309 71.6455 3.53187 71.9545 3.70943C72.267 3.88343 72.5049 4.0823 72.6682 4.30602C72.8351 4.52619 72.9648 4.7073 73.0571 4.84934H73.1636V0.822354H74.4207V11.7314H73.2062V10.4743H73.0571C72.9648 10.6235 72.8334 10.8117 72.6629 11.039C72.4925 11.2627 72.2492 11.4633 71.9332 11.6409C71.6171 11.8149 71.1963 11.9019 70.6707 11.9019ZM70.8412 10.7726C71.3454 10.7726 71.7716 10.6412 72.1196 10.3785C72.4676 10.1121 72.7322 9.74458 72.9133 9.27583C73.0944 8.80353 73.1849 8.25843 73.1849 7.64054C73.1849 7.02974 73.0961 6.49529 72.9186 6.0372C72.741 5.57555 72.4782 5.21689 72.1302 4.9612C71.7822 4.70197 71.3525 4.57235 70.8412 4.57235C70.3085 4.57235 69.8646 4.70907 69.5095 4.98251C69.1579 5.2524 68.8934 5.61994 68.7158 6.08514C68.5418 6.54679 68.4548 7.06525 68.4548 7.64054C68.4548 8.22292 68.5436 8.75204 68.7211 9.22789C68.9023 9.7002 69.1686 10.0766 69.5202 10.3572C69.8753 10.6341 70.3156 10.7726 70.8412 10.7726ZM81.2868 11.7314V0.822354H82.5439V4.84934H82.6505C82.7428 4.7073 82.8706 4.52619 83.034 4.30602C83.2009 4.0823 83.4388 3.88343 83.7478 3.70943C84.0603 3.53187 84.4829 3.44309 85.0155 3.44309C85.7045 3.44309 86.3117 3.61532 86.8373 3.95978C87.3628 4.30424 87.773 4.79252 88.0677 5.42463C88.3625 6.05673 88.5099 6.80247 88.5099 7.66184C88.5099 8.52832 88.3625 9.27939 88.0677 9.91504C87.773 10.5471 87.3646 11.0372 86.8426 11.3852C86.3206 11.7297 85.7187 11.9019 85.0368 11.9019C84.5113 11.9019 84.0905 11.8149 83.7744 11.6409C83.4584 11.4633 83.2151 11.2627 83.0447 11.039C82.8742 10.8117 82.7428 10.6235 82.6505 10.4743H82.5013V11.7314H81.2868ZM82.5226 7.64054C82.5226 8.25843 82.6132 8.80353 82.7943 9.27583C82.9754 9.74458 83.24 10.1121 83.588 10.3785C83.936 10.6412 84.3621 10.7726 84.8664 10.7726C85.392 10.7726 85.8305 10.6341 86.1821 10.3572C86.5372 10.0766 86.8035 9.7002 86.9811 9.22789C87.1622 8.75204 87.2528 8.22292 87.2528 7.64054C87.2528 7.06525 87.164 6.54679 86.9864 6.08514C86.8124 5.61994 86.5479 5.2524 86.1927 4.98251C85.8412 4.70907 85.3991 4.57235 84.8664 4.57235C84.355 4.57235 83.9253 4.70197 83.5773 4.9612C83.2293 5.21689 82.9665 5.57555 82.789 6.0372C82.6114 6.49529 82.5226 7.02974 82.5226 7.64054ZM90.9495 14.7996C90.7364 14.7996 90.5464 14.7819 90.3795 14.7464C90.2126 14.7144 90.0972 14.6824 90.0333 14.6505L90.3529 13.5425C90.6583 13.6206 90.9282 13.6491 91.1626 13.6278C91.3969 13.6064 91.6047 13.5017 91.7858 13.3135C91.9704 13.1288 92.1391 12.8287 92.2918 12.4133L92.5262 11.7741L89.5006 3.54963H90.8643L93.1228 10.0695H93.208L95.4665 3.54963H96.8302L93.3572 12.9246C93.2009 13.3472 93.0074 13.697 92.7765 13.974C92.5457 14.2545 92.2776 14.4623 91.9722 14.5972C91.6704 14.7322 91.3295 14.7996 90.9495 14.7996Z" fill="#333232"/>
</g>
<defs>
<clipPath id="clip0_530_4431">
<rect width="270" height="33.1591" fill="white" transform="translate(0 0.657227)"/>
</clipPath>
</defs>
</svg>
